<mxfile host="app.diagrams.net" modified="2023-12-14T12:14:00.104Z" agent="Mozilla/5.0 (X11; Linux x86_64) AppleWebKit/537.36 (KHTML, like Gecko) Chrome/117.0.0.0 Safari/537.36" etag="wFigKFHh258ZeNK-n_bm" version="22.1.8" type="google">
  <diagram name="PÃ¡gina-1" id="2ldSI35VNAXtxCDPopOY">
    <mxGraphModel grid="0" page="0" gridSize="10" guides="1" tooltips="1" connect="1" arrows="1" fold="1" pageScale="1" pageWidth="827" pageHeight="1169" math="0" shadow="0">
      <root>
        <mxCell id="0" />
        <mxCell id="1" parent="0" />
        <mxCell id="BBiry7j5VrfYlposF9rS-1" value="&lt;font style=&quot;vertical-align: inherit;&quot;&gt;&lt;font style=&quot;vertical-align: inherit;&quot;&gt;GIMNASIO&lt;/font&gt;&lt;/font&gt;" style="rounded=0;whiteSpace=wrap;html=1;fontSize=16;" vertex="1" parent="1">
          <mxGeometry x="-65" y="-86" width="120" height="60" as="geometry" />
        </mxCell>
        <mxCell id="BBiry7j5VrfYlposF9rS-2" value="&lt;font style=&quot;vertical-align: inherit;&quot;&gt;&lt;font style=&quot;vertical-align: inherit;&quot;&gt;nombre&lt;/font&gt;&lt;/font&gt;" style="ellipse;whiteSpace=wrap;html=1;fontSize=16;fontStyle=4" vertex="1" parent="1">
          <mxGeometry x="-81" y="-183" width="97" height="67" as="geometry" />
        </mxCell>
        <mxCell id="BBiry7j5VrfYlposF9rS-3" value="" style="endArrow=none;html=1;rounded=0;fontSize=12;startSize=8;endSize=8;edgeStyle=none;curved=1;entryX=0.5;entryY=1;entryDx=0;entryDy=0;exitX=0.5;exitY=0;exitDx=0;exitDy=0;" edge="1" parent="1" source="BBiry7j5VrfYlposF9rS-1" target="BBiry7j5VrfYlposF9rS-2">
          <mxGeometry width="50" height="50" relative="1" as="geometry">
            <mxPoint x="82" y="120" as="sourcePoint" />
            <mxPoint x="132" y="70" as="targetPoint" />
          </mxGeometry>
        </mxCell>
        <mxCell id="BBiry7j5VrfYlposF9rS-4" value="&lt;font style=&quot;vertical-align: inherit;&quot;&gt;&lt;font style=&quot;vertical-align: inherit;&quot;&gt;&lt;font style=&quot;vertical-align: inherit;&quot;&gt;&lt;font style=&quot;vertical-align: inherit;&quot;&gt;ENTRENADOR&lt;/font&gt;&lt;/font&gt;&lt;/font&gt;&lt;/font&gt;" style="rounded=0;whiteSpace=wrap;html=1;fontSize=16;" vertex="1" parent="1">
          <mxGeometry x="225" y="-86" width="120" height="60" as="geometry" />
        </mxCell>
        <mxCell id="BBiry7j5VrfYlposF9rS-5" value="&lt;font style=&quot;vertical-align: inherit;&quot;&gt;&lt;font style=&quot;vertical-align: inherit;&quot;&gt;trabajan&lt;/font&gt;&lt;/font&gt;" style="rhombus;whiteSpace=wrap;html=1;fontSize=16;" vertex="1" parent="1">
          <mxGeometry x="98" y="-96" width="80" height="80" as="geometry" />
        </mxCell>
        <mxCell id="BBiry7j5VrfYlposF9rS-6" value="" style="endArrow=none;html=1;rounded=0;fontSize=12;startSize=8;endSize=8;edgeStyle=none;curved=1;entryX=0;entryY=0.5;entryDx=0;entryDy=0;exitX=1;exitY=0.5;exitDx=0;exitDy=0;" edge="1" parent="1" source="BBiry7j5VrfYlposF9rS-1" target="BBiry7j5VrfYlposF9rS-5">
          <mxGeometry width="50" height="50" relative="1" as="geometry">
            <mxPoint x="97" y="52" as="sourcePoint" />
            <mxPoint x="147" y="2" as="targetPoint" />
          </mxGeometry>
        </mxCell>
        <mxCell id="BBiry7j5VrfYlposF9rS-7" value="" style="endArrow=none;html=1;rounded=0;fontSize=12;startSize=8;endSize=8;edgeStyle=none;curved=1;entryX=0;entryY=0.5;entryDx=0;entryDy=0;exitX=1;exitY=0.5;exitDx=0;exitDy=0;" edge="1" parent="1" source="BBiry7j5VrfYlposF9rS-5" target="BBiry7j5VrfYlposF9rS-4">
          <mxGeometry width="50" height="50" relative="1" as="geometry">
            <mxPoint x="191" y="112" as="sourcePoint" />
            <mxPoint x="241" y="62" as="targetPoint" />
          </mxGeometry>
        </mxCell>
        <mxCell id="BBiry7j5VrfYlposF9rS-9" value="&lt;font style=&quot;vertical-align: inherit;&quot;&gt;&lt;font style=&quot;vertical-align: inherit;&quot;&gt;&lt;font style=&quot;vertical-align: inherit;&quot;&gt;&lt;font style=&quot;vertical-align: inherit;&quot;&gt;nombre&lt;/font&gt;&lt;/font&gt;&lt;/font&gt;&lt;/font&gt;" style="ellipse;whiteSpace=wrap;html=1;fontSize=16;" vertex="1" parent="1">
          <mxGeometry x="464" y="-216" width="67" height="53" as="geometry" />
        </mxCell>
        <mxCell id="BBiry7j5VrfYlposF9rS-10" value="&lt;font style=&quot;vertical-align: inherit;&quot;&gt;&lt;font style=&quot;vertical-align: inherit;&quot;&gt;dni&lt;/font&gt;&lt;/font&gt;" style="ellipse;whiteSpace=wrap;html=1;fontSize=16;fontStyle=4" vertex="1" parent="1">
          <mxGeometry x="631" y="-214" width="58" height="41" as="geometry" />
        </mxCell>
        <mxCell id="BBiry7j5VrfYlposF9rS-11" value="&lt;font style=&quot;vertical-align: inherit;&quot;&gt;&lt;font style=&quot;vertical-align: inherit;&quot;&gt;&lt;font style=&quot;vertical-align: inherit;&quot;&gt;&lt;font style=&quot;vertical-align: inherit;&quot;&gt;&lt;font style=&quot;vertical-align: inherit;&quot;&gt;&lt;font style=&quot;vertical-align: inherit;&quot;&gt;primer apellido&lt;/font&gt;&lt;/font&gt;&lt;/font&gt;&lt;/font&gt;&lt;/font&gt;&lt;/font&gt;" style="ellipse;whiteSpace=wrap;html=1;fontSize=16;" vertex="1" parent="1">
          <mxGeometry x="543" y="-226" width="67" height="53" as="geometry" />
        </mxCell>
        <mxCell id="BBiry7j5VrfYlposF9rS-13" value="" style="endArrow=none;html=1;rounded=0;fontSize=12;startSize=8;endSize=8;edgeStyle=none;curved=1;entryX=0.5;entryY=1;entryDx=0;entryDy=0;exitX=0.2;exitY=0.05;exitDx=0;exitDy=0;exitPerimeter=0;" edge="1" parent="1" source="BBiry7j5VrfYlposF9rS-37" target="BBiry7j5VrfYlposF9rS-9">
          <mxGeometry width="50" height="50" relative="1" as="geometry">
            <mxPoint x="93" y="150" as="sourcePoint" />
            <mxPoint x="143" y="100" as="targetPoint" />
          </mxGeometry>
        </mxCell>
        <mxCell id="BBiry7j5VrfYlposF9rS-14" value="" style="endArrow=none;html=1;rounded=0;fontSize=12;startSize=8;endSize=8;edgeStyle=none;curved=1;entryX=0.5;entryY=1;entryDx=0;entryDy=0;exitX=0.75;exitY=0;exitDx=0;exitDy=0;" edge="1" parent="1" source="BBiry7j5VrfYlposF9rS-37" target="BBiry7j5VrfYlposF9rS-10">
          <mxGeometry width="50" height="50" relative="1" as="geometry">
            <mxPoint x="211" y="178" as="sourcePoint" />
            <mxPoint x="261" y="128" as="targetPoint" />
          </mxGeometry>
        </mxCell>
        <mxCell id="BBiry7j5VrfYlposF9rS-15" value="" style="endArrow=none;html=1;rounded=0;fontSize=12;startSize=8;endSize=8;edgeStyle=none;curved=1;entryX=0.5;entryY=1;entryDx=0;entryDy=0;exitX=0.5;exitY=0;exitDx=0;exitDy=0;" edge="1" parent="1" source="BBiry7j5VrfYlposF9rS-37" target="BBiry7j5VrfYlposF9rS-11">
          <mxGeometry width="50" height="50" relative="1" as="geometry">
            <mxPoint x="340" y="111" as="sourcePoint" />
            <mxPoint x="390" y="61" as="targetPoint" />
          </mxGeometry>
        </mxCell>
        <mxCell id="BBiry7j5VrfYlposF9rS-17" value="&lt;font style=&quot;vertical-align: inherit;&quot;&gt;&lt;font style=&quot;vertical-align: inherit;&quot;&gt;1:N&lt;/font&gt;&lt;/font&gt;" style="text;html=1;strokeColor=none;fillColor=none;align=center;verticalAlign=middle;whiteSpace=wrap;rounded=0;fontSize=16;" vertex="1" parent="1">
          <mxGeometry x="178" y="-76" width="49" height="16" as="geometry" />
        </mxCell>
        <mxCell id="BBiry7j5VrfYlposF9rS-18" value="&lt;font style=&quot;vertical-align: inherit;&quot;&gt;&lt;font style=&quot;vertical-align: inherit;&quot;&gt;&lt;font style=&quot;vertical-align: inherit;&quot;&gt;&lt;font style=&quot;vertical-align: inherit;&quot;&gt;1:1&lt;/font&gt;&lt;/font&gt;&lt;/font&gt;&lt;/font&gt;" style="text;html=1;strokeColor=none;fillColor=none;align=center;verticalAlign=middle;whiteSpace=wrap;rounded=0;fontSize=16;" vertex="1" parent="1">
          <mxGeometry x="55" y="-78" width="49" height="16" as="geometry" />
        </mxCell>
        <mxCell id="BBiry7j5VrfYlposF9rS-19" value="&lt;font style=&quot;vertical-align: inherit;&quot;&gt;&lt;font style=&quot;vertical-align: inherit;&quot;&gt;1:N&lt;/font&gt;&lt;/font&gt;" style="text;html=1;strokeColor=none;fillColor=none;align=center;verticalAlign=middle;whiteSpace=wrap;rounded=0;fontSize=16;" vertex="1" parent="1">
          <mxGeometry x="113.5" y="-116" width="49" height="16" as="geometry" />
        </mxCell>
        <mxCell id="BBiry7j5VrfYlposF9rS-20" value="&lt;font style=&quot;vertical-align: inherit;&quot;&gt;&lt;font style=&quot;vertical-align: inherit;&quot;&gt;planifica&lt;/font&gt;&lt;/font&gt;" style="rhombus;whiteSpace=wrap;html=1;fontSize=16;" vertex="1" parent="1">
          <mxGeometry x="245" y="40" width="80" height="80" as="geometry" />
        </mxCell>
        <mxCell id="BBiry7j5VrfYlposF9rS-21" value="&lt;font style=&quot;vertical-align: inherit;&quot;&gt;&lt;font style=&quot;vertical-align: inherit;&quot;&gt;CLIENTE&lt;/font&gt;&lt;/font&gt;" style="rounded=0;whiteSpace=wrap;html=1;fontSize=16;" vertex="1" parent="1">
          <mxGeometry x="551" y="50" width="120" height="60" as="geometry" />
        </mxCell>
        <mxCell id="BBiry7j5VrfYlposF9rS-22" value="&lt;font style=&quot;vertical-align: inherit;&quot;&gt;&lt;font style=&quot;vertical-align: inherit;&quot;&gt;PLANIFICACION&lt;/font&gt;&lt;/font&gt;" style="rounded=0;whiteSpace=wrap;html=1;fontSize=16;" vertex="1" parent="1">
          <mxGeometry x="218" y="183" width="134" height="60" as="geometry" />
        </mxCell>
        <mxCell id="BBiry7j5VrfYlposF9rS-24" value="" style="endArrow=none;html=1;rounded=0;fontSize=12;startSize=8;endSize=8;edgeStyle=none;curved=1;entryX=0.5;entryY=1;entryDx=0;entryDy=0;exitX=0.5;exitY=0;exitDx=0;exitDy=0;" edge="1" parent="1" source="BBiry7j5VrfYlposF9rS-20" target="BBiry7j5VrfYlposF9rS-4">
          <mxGeometry width="50" height="50" relative="1" as="geometry">
            <mxPoint x="222" y="51" as="sourcePoint" />
            <mxPoint x="272" y="1" as="targetPoint" />
          </mxGeometry>
        </mxCell>
        <mxCell id="BBiry7j5VrfYlposF9rS-25" value="" style="endArrow=none;html=1;rounded=0;fontSize=12;startSize=8;endSize=8;edgeStyle=none;curved=1;entryX=0.5;entryY=1;entryDx=0;entryDy=0;exitX=0.5;exitY=0;exitDx=0;exitDy=0;" edge="1" parent="1" source="BBiry7j5VrfYlposF9rS-22" target="BBiry7j5VrfYlposF9rS-20">
          <mxGeometry width="50" height="50" relative="1" as="geometry">
            <mxPoint x="174" y="212" as="sourcePoint" />
            <mxPoint x="224" y="162" as="targetPoint" />
          </mxGeometry>
        </mxCell>
        <mxCell id="BBiry7j5VrfYlposF9rS-26" value="" style="endArrow=none;html=1;rounded=0;fontSize=12;startSize=8;endSize=8;edgeStyle=none;curved=1;exitX=1;exitY=0.525;exitDx=0;exitDy=0;exitPerimeter=0;entryX=0;entryY=0.5;entryDx=0;entryDy=0;" edge="1" parent="1" source="BBiry7j5VrfYlposF9rS-20" target="BBiry7j5VrfYlposF9rS-21">
          <mxGeometry width="50" height="50" relative="1" as="geometry">
            <mxPoint x="321" y="153" as="sourcePoint" />
            <mxPoint x="371" y="103" as="targetPoint" />
          </mxGeometry>
        </mxCell>
        <mxCell id="BBiry7j5VrfYlposF9rS-27" value="&lt;font style=&quot;vertical-align: inherit;&quot;&gt;&lt;font style=&quot;vertical-align: inherit;&quot;&gt;1:1&lt;/font&gt;&lt;/font&gt;" style="text;html=1;strokeColor=none;fillColor=none;align=center;verticalAlign=middle;whiteSpace=wrap;rounded=0;fontSize=16;" vertex="1" parent="1">
          <mxGeometry x="285" y="-28" width="60" height="30" as="geometry" />
        </mxCell>
        <mxCell id="BBiry7j5VrfYlposF9rS-28" value="&lt;font style=&quot;vertical-align: inherit;&quot;&gt;&lt;font style=&quot;vertical-align: inherit;&quot;&gt;&lt;font style=&quot;vertical-align: inherit;&quot;&gt;&lt;font style=&quot;vertical-align: inherit;&quot;&gt;1:N&lt;/font&gt;&lt;/font&gt;&lt;/font&gt;&lt;/font&gt;" style="text;html=1;strokeColor=none;fillColor=none;align=center;verticalAlign=middle;whiteSpace=wrap;rounded=0;fontSize=16;" vertex="1" parent="1">
          <mxGeometry x="491" y="50" width="60" height="30" as="geometry" />
        </mxCell>
        <mxCell id="BBiry7j5VrfYlposF9rS-29" value="&lt;font style=&quot;vertical-align: inherit;&quot;&gt;&lt;font style=&quot;vertical-align: inherit;&quot;&gt;1:N&lt;/font&gt;&lt;/font&gt;" style="text;html=1;strokeColor=none;fillColor=none;align=center;verticalAlign=middle;whiteSpace=wrap;rounded=0;fontSize=16;" vertex="1" parent="1">
          <mxGeometry x="285" y="155" width="60" height="30" as="geometry" />
        </mxCell>
        <mxCell id="BBiry7j5VrfYlposF9rS-31" value="&lt;font style=&quot;vertical-align: inherit;&quot;&gt;&lt;font style=&quot;vertical-align: inherit;&quot;&gt;1:1:N&lt;/font&gt;&lt;/font&gt;" style="text;html=1;strokeColor=none;fillColor=none;align=center;verticalAlign=middle;whiteSpace=wrap;rounded=0;fontSize=16;" vertex="1" parent="1">
          <mxGeometry x="175.5" y="65" width="60" height="30" as="geometry" />
        </mxCell>
        <mxCell id="BBiry7j5VrfYlposF9rS-37" value="&lt;font style=&quot;vertical-align: inherit;&quot;&gt;&lt;font style=&quot;vertical-align: inherit;&quot;&gt;PERSONA&lt;/font&gt;&lt;/font&gt;" style="rounded=0;whiteSpace=wrap;html=1;fontSize=16;" vertex="1" parent="1">
          <mxGeometry x="516.5" y="-143.5" width="120" height="60" as="geometry" />
        </mxCell>
        <mxCell id="BBiry7j5VrfYlposF9rS-38" value="" style="triangle;whiteSpace=wrap;html=1;fontSize=16;rotation=90;" vertex="1" parent="1">
          <mxGeometry x="558" y="-69" width="37" height="58" as="geometry" />
        </mxCell>
        <mxCell id="BBiry7j5VrfYlposF9rS-39" value="" style="endArrow=none;html=1;rounded=0;fontSize=12;startSize=8;endSize=8;edgeStyle=none;curved=1;entryX=0.5;entryY=1;entryDx=0;entryDy=0;exitX=0;exitY=0.5;exitDx=0;exitDy=0;" edge="1" parent="1" source="BBiry7j5VrfYlposF9rS-38" target="BBiry7j5VrfYlposF9rS-37">
          <mxGeometry width="50" height="50" relative="1" as="geometry">
            <mxPoint x="460" y="7" as="sourcePoint" />
            <mxPoint x="510" y="-43" as="targetPoint" />
          </mxGeometry>
        </mxCell>
        <mxCell id="BBiry7j5VrfYlposF9rS-40" value="" style="endArrow=none;html=1;rounded=0;fontSize=12;startSize=8;endSize=8;edgeStyle=none;curved=1;entryX=0.5;entryY=1;entryDx=0;entryDy=0;exitX=1;exitY=0.5;exitDx=0;exitDy=0;" edge="1" parent="1" source="BBiry7j5VrfYlposF9rS-4" target="BBiry7j5VrfYlposF9rS-38">
          <mxGeometry width="50" height="50" relative="1" as="geometry">
            <mxPoint x="475" y="-5" as="sourcePoint" />
            <mxPoint x="525" y="-55" as="targetPoint" />
          </mxGeometry>
        </mxCell>
        <mxCell id="BBiry7j5VrfYlposF9rS-41" value="" style="endArrow=none;html=1;rounded=0;fontSize=12;startSize=8;endSize=8;edgeStyle=none;curved=1;entryX=0.5;entryY=0;entryDx=0;entryDy=0;exitX=0.5;exitY=0;exitDx=0;exitDy=0;" edge="1" parent="1" source="BBiry7j5VrfYlposF9rS-21" target="BBiry7j5VrfYlposF9rS-38">
          <mxGeometry width="50" height="50" relative="1" as="geometry">
            <mxPoint x="637" y="36" as="sourcePoint" />
            <mxPoint x="651" y="46" as="targetPoint" />
          </mxGeometry>
        </mxCell>
        <mxCell id="BBiry7j5VrfYlposF9rS-42" value="" style="shape=requiredInterface;html=1;verticalLabelPosition=bottom;sketch=0;fontSize=16;rotation=115;" vertex="1" parent="1">
          <mxGeometry x="536" y="-88" width="50" height="142" as="geometry" />
        </mxCell>
        <mxCell id="BBiry7j5VrfYlposF9rS-44" value="&lt;font style=&quot;vertical-align: inherit;&quot;&gt;&lt;font style=&quot;vertical-align: inherit;&quot;&gt;salario&lt;/font&gt;&lt;/font&gt;" style="ellipse;whiteSpace=wrap;html=1;fontSize=16;" vertex="1" parent="1">
          <mxGeometry x="249" y="-158" width="82" height="39" as="geometry" />
        </mxCell>
        <mxCell id="BBiry7j5VrfYlposF9rS-45" value="" style="endArrow=none;html=1;rounded=0;fontSize=12;startSize=8;endSize=8;edgeStyle=none;curved=1;entryX=0.427;entryY=0.974;entryDx=0;entryDy=0;exitX=0.5;exitY=0;exitDx=0;exitDy=0;entryPerimeter=0;" edge="1" parent="1" source="BBiry7j5VrfYlposF9rS-4" target="BBiry7j5VrfYlposF9rS-44">
          <mxGeometry width="50" height="50" relative="1" as="geometry">
            <mxPoint x="384.5" y="-96.25" as="sourcePoint" />
            <mxPoint x="341.5" y="-119.25" as="targetPoint" />
          </mxGeometry>
        </mxCell>
        <mxCell id="BBiry7j5VrfYlposF9rS-46" value="&lt;font style=&quot;vertical-align: inherit;&quot;&gt;&lt;font style=&quot;vertical-align: inherit;&quot;&gt;Fecha de alta&amp;nbsp;&lt;/font&gt;&lt;/font&gt;" style="ellipse;whiteSpace=wrap;html=1;fontSize=16;" vertex="1" parent="1">
          <mxGeometry x="714" y="53.75" width="96" height="52.5" as="geometry" />
        </mxCell>
        <mxCell id="BBiry7j5VrfYlposF9rS-48" value="" style="endArrow=none;html=1;rounded=0;fontSize=12;startSize=8;endSize=8;edgeStyle=none;curved=1;entryX=0;entryY=0.5;entryDx=0;entryDy=0;exitX=1;exitY=0.5;exitDx=0;exitDy=0;" edge="1" parent="1" source="BBiry7j5VrfYlposF9rS-21" target="BBiry7j5VrfYlposF9rS-46">
          <mxGeometry width="50" height="50" relative="1" as="geometry">
            <mxPoint x="658.5" y="-82" as="sourcePoint" />
            <mxPoint x="711.5" y="-112" as="targetPoint" />
          </mxGeometry>
        </mxCell>
        <mxCell id="BBiry7j5VrfYlposF9rS-49" value="&lt;font style=&quot;vertical-align: inherit;&quot;&gt;&lt;font style=&quot;vertical-align: inherit;&quot;&gt;&lt;font style=&quot;vertical-align: inherit;&quot;&gt;&lt;font style=&quot;vertical-align: inherit;&quot;&gt;codigo&lt;/font&gt;&lt;/font&gt;&lt;/font&gt;&lt;/font&gt;" style="ellipse;whiteSpace=wrap;html=1;fontSize=16;fontStyle=4" vertex="1" parent="1">
          <mxGeometry x="188" y="268.75" width="82" height="39" as="geometry" />
        </mxCell>
        <mxCell id="BBiry7j5VrfYlposF9rS-50" value="&lt;font style=&quot;vertical-align: inherit;&quot;&gt;&lt;font style=&quot;vertical-align: inherit;&quot;&gt;&lt;font style=&quot;vertical-align: inherit;&quot;&gt;&lt;font style=&quot;vertical-align: inherit;&quot;&gt;Fecha de creacion&amp;nbsp;&lt;/font&gt;&lt;/font&gt;&lt;/font&gt;&lt;/font&gt;" style="ellipse;whiteSpace=wrap;html=1;fontSize=16;" vertex="1" parent="1">
          <mxGeometry x="287" y="262" width="96" height="52.5" as="geometry" />
        </mxCell>
        <mxCell id="BBiry7j5VrfYlposF9rS-51" value="" style="endArrow=none;html=1;rounded=0;fontSize=12;startSize=8;endSize=8;edgeStyle=none;curved=1;entryX=0.5;entryY=1;entryDx=0;entryDy=0;" edge="1" parent="1" source="BBiry7j5VrfYlposF9rS-49" target="BBiry7j5VrfYlposF9rS-22">
          <mxGeometry width="50" height="50" relative="1" as="geometry">
            <mxPoint x="242" y="374" as="sourcePoint" />
            <mxPoint x="285" y="374" as="targetPoint" />
          </mxGeometry>
        </mxCell>
        <mxCell id="BBiry7j5VrfYlposF9rS-53" value="" style="endArrow=none;html=1;rounded=0;fontSize=12;startSize=8;endSize=8;edgeStyle=none;curved=1;entryX=0.5;entryY=1;entryDx=0;entryDy=0;exitX=0;exitY=0;exitDx=0;exitDy=0;" edge="1" parent="1" source="BBiry7j5VrfYlposF9rS-50" target="BBiry7j5VrfYlposF9rS-22">
          <mxGeometry width="50" height="50" relative="1" as="geometry">
            <mxPoint x="493" y="290" as="sourcePoint" />
            <mxPoint x="536" y="290" as="targetPoint" />
          </mxGeometry>
        </mxCell>
        <mxCell id="BBiry7j5VrfYlposF9rS-54" value="&lt;font style=&quot;vertical-align: inherit;&quot;&gt;&lt;font style=&quot;vertical-align: inherit;&quot;&gt;Formado por&lt;/font&gt;&lt;/font&gt;" style="rhombus;whiteSpace=wrap;html=1;fontSize=16;" vertex="1" parent="1">
          <mxGeometry x="429" y="173" width="113" height="80" as="geometry" />
        </mxCell>
        <mxCell id="BBiry7j5VrfYlposF9rS-55" value="&lt;font style=&quot;vertical-align: inherit;&quot;&gt;&lt;font style=&quot;vertical-align: inherit;&quot;&gt;ENTRENAMIENTO&lt;/font&gt;&lt;/font&gt;" style="rounded=0;whiteSpace=wrap;html=1;fontSize=16;" vertex="1" parent="1">
          <mxGeometry x="598" y="183" width="172" height="58" as="geometry" />
        </mxCell>
        <mxCell id="BBiry7j5VrfYlposF9rS-56" value="" style="endArrow=none;html=1;rounded=0;fontSize=12;startSize=8;endSize=8;edgeStyle=none;curved=1;exitX=1;exitY=0.5;exitDx=0;exitDy=0;entryX=0;entryY=0.5;entryDx=0;entryDy=0;" edge="1" parent="1" source="BBiry7j5VrfYlposF9rS-22" target="BBiry7j5VrfYlposF9rS-54">
          <mxGeometry width="50" height="50" relative="1" as="geometry">
            <mxPoint x="522" y="404" as="sourcePoint" />
            <mxPoint x="572" y="354" as="targetPoint" />
          </mxGeometry>
        </mxCell>
        <mxCell id="BBiry7j5VrfYlposF9rS-57" value="" style="endArrow=none;html=1;rounded=0;fontSize=12;startSize=8;endSize=8;edgeStyle=none;curved=1;exitX=1;exitY=0.5;exitDx=0;exitDy=0;entryX=0;entryY=0.5;entryDx=0;entryDy=0;" edge="1" parent="1" source="BBiry7j5VrfYlposF9rS-54" target="BBiry7j5VrfYlposF9rS-55">
          <mxGeometry width="50" height="50" relative="1" as="geometry">
            <mxPoint x="581" y="344" as="sourcePoint" />
            <mxPoint x="631" y="294" as="targetPoint" />
          </mxGeometry>
        </mxCell>
        <mxCell id="BBiry7j5VrfYlposF9rS-58" value="&lt;font style=&quot;vertical-align: inherit;&quot;&gt;&lt;font style=&quot;vertical-align: inherit;&quot;&gt;&lt;font style=&quot;vertical-align: inherit;&quot;&gt;&lt;font style=&quot;vertical-align: inherit;&quot;&gt;&lt;font style=&quot;vertical-align: inherit;&quot;&gt;&lt;font style=&quot;vertical-align: inherit;&quot;&gt;&lt;font style=&quot;vertical-align: inherit;&quot;&gt;&lt;font style=&quot;vertical-align: inherit;&quot;&gt;fecha de creaciÃ³n&lt;/font&gt;&lt;/font&gt;&lt;/font&gt;&lt;/font&gt;&lt;/font&gt;&lt;/font&gt;&lt;/font&gt;&lt;/font&gt;" style="ellipse;whiteSpace=wrap;html=1;fontSize=16;" vertex="1" parent="1">
          <mxGeometry x="697" y="275.5" width="87" height="44" as="geometry" />
        </mxCell>
        <mxCell id="BBiry7j5VrfYlposF9rS-59" value="&lt;font style=&quot;vertical-align: inherit;&quot;&gt;&lt;font style=&quot;vertical-align: inherit;&quot;&gt;Codigo&amp;nbsp;&lt;/font&gt;&lt;/font&gt;" style="ellipse;whiteSpace=wrap;html=1;fontSize=16;fontStyle=4" vertex="1" parent="1">
          <mxGeometry x="618" y="278" width="71" height="39" as="geometry" />
        </mxCell>
        <mxCell id="BBiry7j5VrfYlposF9rS-60" value="" style="endArrow=none;html=1;rounded=0;fontSize=12;startSize=8;endSize=8;edgeStyle=none;curved=1;entryX=0.5;entryY=1;entryDx=0;entryDy=0;exitX=0.5;exitY=0;exitDx=0;exitDy=0;" edge="1" parent="1" source="BBiry7j5VrfYlposF9rS-59" target="BBiry7j5VrfYlposF9rS-55">
          <mxGeometry width="50" height="50" relative="1" as="geometry">
            <mxPoint x="590" y="399" as="sourcePoint" />
            <mxPoint x="640" y="349" as="targetPoint" />
          </mxGeometry>
        </mxCell>
        <mxCell id="BBiry7j5VrfYlposF9rS-61" value="" style="endArrow=none;html=1;rounded=0;fontSize=12;startSize=8;endSize=8;edgeStyle=none;curved=1;entryX=0.5;entryY=1;entryDx=0;entryDy=0;exitX=0.379;exitY=0.034;exitDx=0;exitDy=0;exitPerimeter=0;" edge="1" parent="1" source="BBiry7j5VrfYlposF9rS-58" target="BBiry7j5VrfYlposF9rS-55">
          <mxGeometry width="50" height="50" relative="1" as="geometry">
            <mxPoint x="658" y="430" as="sourcePoint" />
            <mxPoint x="708" y="380" as="targetPoint" />
          </mxGeometry>
        </mxCell>
        <mxCell id="BBiry7j5VrfYlposF9rS-62" value="&lt;font style=&quot;vertical-align: inherit;&quot;&gt;&lt;font style=&quot;vertical-align: inherit;&quot;&gt;1:N&lt;/font&gt;&lt;/font&gt;" style="text;html=1;strokeColor=none;fillColor=none;align=center;verticalAlign=middle;whiteSpace=wrap;rounded=0;fontSize=16;" vertex="1" parent="1">
          <mxGeometry x="350" y="183" width="60" height="30" as="geometry" />
        </mxCell>
        <mxCell id="BBiry7j5VrfYlposF9rS-63" value="&lt;font style=&quot;vertical-align: inherit;&quot;&gt;&lt;font style=&quot;vertical-align: inherit;&quot;&gt;1:N&lt;/font&gt;&lt;/font&gt;" style="text;html=1;strokeColor=none;fillColor=none;align=center;verticalAlign=middle;whiteSpace=wrap;rounded=0;fontSize=16;" vertex="1" parent="1">
          <mxGeometry x="543" y="183" width="60" height="30" as="geometry" />
        </mxCell>
        <mxCell id="BBiry7j5VrfYlposF9rS-64" value="&lt;font style=&quot;vertical-align: inherit;&quot;&gt;&lt;font style=&quot;vertical-align: inherit;&quot;&gt;1:N&lt;/font&gt;&lt;/font&gt;" style="text;html=1;strokeColor=none;fillColor=none;align=center;verticalAlign=middle;whiteSpace=wrap;rounded=0;fontSize=16;" vertex="1" parent="1">
          <mxGeometry x="456.5" y="141" width="60" height="30" as="geometry" />
        </mxCell>
        <mxCell id="BBiry7j5VrfYlposF9rS-65" value="&lt;font style=&quot;vertical-align: inherit;&quot;&gt;&lt;font style=&quot;vertical-align: inherit;&quot;&gt;Formado por&lt;/font&gt;&lt;/font&gt;" style="rhombus;whiteSpace=wrap;html=1;fontSize=16;" vertex="1" parent="1">
          <mxGeometry x="833" y="173" width="113" height="80" as="geometry" />
        </mxCell>
        <mxCell id="BBiry7j5VrfYlposF9rS-66" value="" style="endArrow=none;html=1;rounded=0;fontSize=12;startSize=8;endSize=8;edgeStyle=none;curved=1;entryX=0;entryY=0.5;entryDx=0;entryDy=0;exitX=1;exitY=0.5;exitDx=0;exitDy=0;" edge="1" parent="1" source="BBiry7j5VrfYlposF9rS-55" target="BBiry7j5VrfYlposF9rS-65">
          <mxGeometry width="50" height="50" relative="1" as="geometry">
            <mxPoint x="924" y="434" as="sourcePoint" />
            <mxPoint x="974" y="384" as="targetPoint" />
          </mxGeometry>
        </mxCell>
        <mxCell id="BBiry7j5VrfYlposF9rS-67" value="EJERCICIO" style="rounded=0;whiteSpace=wrap;html=1;fontSize=16;" vertex="1" parent="1">
          <mxGeometry x="996" y="183" width="120" height="60" as="geometry" />
        </mxCell>
        <mxCell id="BBiry7j5VrfYlposF9rS-68" value="" style="endArrow=none;html=1;rounded=0;fontSize=12;startSize=8;endSize=8;edgeStyle=none;curved=1;entryX=0;entryY=0.5;entryDx=0;entryDy=0;exitX=1;exitY=0.5;exitDx=0;exitDy=0;" edge="1" parent="1" source="BBiry7j5VrfYlposF9rS-65" target="BBiry7j5VrfYlposF9rS-67">
          <mxGeometry width="50" height="50" relative="1" as="geometry">
            <mxPoint x="874" y="352" as="sourcePoint" />
            <mxPoint x="924" y="302" as="targetPoint" />
          </mxGeometry>
        </mxCell>
        <mxCell id="BBiry7j5VrfYlposF9rS-69" value="&lt;font style=&quot;vertical-align: inherit;&quot;&gt;&lt;font style=&quot;vertical-align: inherit;&quot;&gt;1:N&lt;/font&gt;&lt;/font&gt;" style="text;html=1;strokeColor=none;fillColor=none;align=center;verticalAlign=middle;whiteSpace=wrap;rounded=0;fontSize=16;" vertex="1" parent="1">
          <mxGeometry x="773" y="185" width="60" height="30" as="geometry" />
        </mxCell>
        <mxCell id="BBiry7j5VrfYlposF9rS-70" value="&lt;font style=&quot;vertical-align: inherit;&quot;&gt;&lt;font style=&quot;vertical-align: inherit;&quot;&gt;1:N&lt;/font&gt;&lt;/font&gt;" style="text;html=1;strokeColor=none;fillColor=none;align=center;verticalAlign=middle;whiteSpace=wrap;rounded=0;fontSize=16;" vertex="1" parent="1">
          <mxGeometry x="936" y="183" width="60" height="30" as="geometry" />
        </mxCell>
        <mxCell id="BBiry7j5VrfYlposF9rS-71" value="&lt;font style=&quot;vertical-align: inherit;&quot;&gt;&lt;font style=&quot;vertical-align: inherit;&quot;&gt;1:N&lt;/font&gt;&lt;/font&gt;" style="text;html=1;strokeColor=none;fillColor=none;align=center;verticalAlign=middle;whiteSpace=wrap;rounded=0;fontSize=16;" vertex="1" parent="1">
          <mxGeometry x="862" y="143" width="60" height="30" as="geometry" />
        </mxCell>
        <mxCell id="BBiry7j5VrfYlposF9rS-72" value="&lt;font style=&quot;vertical-align: inherit;&quot;&gt;&lt;font style=&quot;vertical-align: inherit;&quot;&gt;&lt;font style=&quot;vertical-align: inherit;&quot;&gt;&lt;font style=&quot;vertical-align: inherit;&quot;&gt;&lt;u&gt;nombre&lt;/u&gt;&lt;/font&gt;&lt;/font&gt;&lt;/font&gt;&lt;/font&gt;" style="ellipse;whiteSpace=wrap;html=1;fontSize=16;" vertex="1" parent="1">
          <mxGeometry x="975" y="263.75" width="71" height="34.25" as="geometry" />
        </mxCell>
        <mxCell id="BBiry7j5VrfYlposF9rS-73" value="nÂº series" style="ellipse;whiteSpace=wrap;html=1;fontSize=16;" vertex="1" parent="1">
          <mxGeometry x="1098" y="267.25" width="71" height="42" as="geometry" />
        </mxCell>
        <mxCell id="BBiry7j5VrfYlposF9rS-74" value="nÂº repeticiones" style="ellipse;whiteSpace=wrap;html=1;fontSize=16;" vertex="1" parent="1">
          <mxGeometry x="1011" y="319.5" width="117" height="32" as="geometry" />
        </mxCell>
        <mxCell id="BBiry7j5VrfYlposF9rS-75" value="" style="endArrow=none;html=1;rounded=0;fontSize=12;startSize=8;endSize=8;edgeStyle=none;curved=1;entryX=0.5;entryY=1;entryDx=0;entryDy=0;exitX=0.5;exitY=0;exitDx=0;exitDy=0;" edge="1" parent="1" source="BBiry7j5VrfYlposF9rS-72" target="BBiry7j5VrfYlposF9rS-67">
          <mxGeometry width="50" height="50" relative="1" as="geometry">
            <mxPoint x="840" y="441" as="sourcePoint" />
            <mxPoint x="890" y="391" as="targetPoint" />
          </mxGeometry>
        </mxCell>
        <mxCell id="BBiry7j5VrfYlposF9rS-76" value="" style="endArrow=none;html=1;rounded=0;fontSize=12;startSize=8;endSize=8;edgeStyle=none;curved=1;entryX=0.5;entryY=1;entryDx=0;entryDy=0;exitX=0.5;exitY=0;exitDx=0;exitDy=0;" edge="1" parent="1" source="BBiry7j5VrfYlposF9rS-73" target="BBiry7j5VrfYlposF9rS-67">
          <mxGeometry width="50" height="50" relative="1" as="geometry">
            <mxPoint x="1128" y="466" as="sourcePoint" />
            <mxPoint x="1178" y="416" as="targetPoint" />
          </mxGeometry>
        </mxCell>
        <mxCell id="BBiry7j5VrfYlposF9rS-77" value="" style="endArrow=none;html=1;rounded=0;fontSize=12;startSize=8;endSize=8;edgeStyle=none;curved=1;entryX=0.5;entryY=1;entryDx=0;entryDy=0;exitX=0.5;exitY=0;exitDx=0;exitDy=0;" edge="1" parent="1" source="BBiry7j5VrfYlposF9rS-74" target="BBiry7j5VrfYlposF9rS-67">
          <mxGeometry width="50" height="50" relative="1" as="geometry">
            <mxPoint x="970" y="458" as="sourcePoint" />
            <mxPoint x="1020" y="408" as="targetPoint" />
          </mxGeometry>
        </mxCell>
        <mxCell id="BBiry7j5VrfYlposF9rS-78" value="utilizan" style="rhombus;whiteSpace=wrap;html=1;fontSize=16;" vertex="1" parent="1">
          <mxGeometry x="1169" y="172" width="80" height="80" as="geometry" />
        </mxCell>
        <mxCell id="BBiry7j5VrfYlposF9rS-79" value="" style="endArrow=none;html=1;rounded=0;fontSize=12;startSize=8;endSize=8;edgeStyle=none;curved=1;entryX=1;entryY=0.5;entryDx=0;entryDy=0;exitX=0;exitY=0.5;exitDx=0;exitDy=0;" edge="1" parent="1" source="BBiry7j5VrfYlposF9rS-78" target="BBiry7j5VrfYlposF9rS-67">
          <mxGeometry width="50" height="50" relative="1" as="geometry">
            <mxPoint x="1301" y="393" as="sourcePoint" />
            <mxPoint x="1351" y="343" as="targetPoint" />
          </mxGeometry>
        </mxCell>
        <mxCell id="BBiry7j5VrfYlposF9rS-80" value="" style="endArrow=none;html=1;rounded=0;fontSize=12;startSize=8;endSize=8;edgeStyle=none;curved=1;exitX=1;exitY=0.5;exitDx=0;exitDy=0;entryX=0;entryY=0.5;entryDx=0;entryDy=0;" edge="1" parent="1" source="BBiry7j5VrfYlposF9rS-78" target="BBiry7j5VrfYlposF9rS-81">
          <mxGeometry width="50" height="50" relative="1" as="geometry">
            <mxPoint x="1354" y="336" as="sourcePoint" />
            <mxPoint x="1324" y="212" as="targetPoint" />
          </mxGeometry>
        </mxCell>
        <mxCell id="BBiry7j5VrfYlposF9rS-81" value="MATERIAL" style="rounded=0;whiteSpace=wrap;html=1;fontSize=16;" vertex="1" parent="1">
          <mxGeometry x="1302" y="182" width="120" height="60" as="geometry" />
        </mxCell>
        <mxCell id="BBiry7j5VrfYlposF9rS-82" value="N:M" style="text;html=1;strokeColor=none;fillColor=none;align=center;verticalAlign=middle;whiteSpace=wrap;rounded=0;fontSize=16;" vertex="1" parent="1">
          <mxGeometry x="1179" y="132" width="60" height="30" as="geometry" />
        </mxCell>
        <mxCell id="BBiry7j5VrfYlposF9rS-83" value="1:N" style="text;html=1;strokeColor=none;fillColor=none;align=center;verticalAlign=middle;whiteSpace=wrap;rounded=0;fontSize=16;" vertex="1" parent="1">
          <mxGeometry x="1113" y="182" width="60" height="30" as="geometry" />
        </mxCell>
        <mxCell id="BBiry7j5VrfYlposF9rS-84" value="0:N" style="text;html=1;strokeColor=none;fillColor=none;align=center;verticalAlign=middle;whiteSpace=wrap;rounded=0;fontSize=16;" vertex="1" parent="1">
          <mxGeometry x="1244" y="182" width="60" height="30" as="geometry" />
        </mxCell>
        <mxCell id="BBiry7j5VrfYlposF9rS-85" value="&lt;font style=&quot;vertical-align: inherit;&quot;&gt;&lt;font style=&quot;vertical-align: inherit;&quot;&gt;&lt;font style=&quot;vertical-align: inherit;&quot;&gt;&lt;font style=&quot;vertical-align: inherit;&quot;&gt;&lt;u&gt;nombre&lt;/u&gt;&lt;/font&gt;&lt;/font&gt;&lt;/font&gt;&lt;/font&gt;" style="ellipse;whiteSpace=wrap;html=1;fontSize=16;" vertex="1" parent="1">
          <mxGeometry x="1326.5" y="267.25" width="71" height="34.25" as="geometry" />
        </mxCell>
        <mxCell id="BBiry7j5VrfYlposF9rS-87" value="" style="endArrow=none;html=1;rounded=0;fontSize=12;startSize=8;endSize=8;edgeStyle=none;curved=1;entryX=0.5;entryY=1;entryDx=0;entryDy=0;exitX=0.5;exitY=0;exitDx=0;exitDy=0;" edge="1" parent="1" source="BBiry7j5VrfYlposF9rS-85" target="BBiry7j5VrfYlposF9rS-81">
          <mxGeometry width="50" height="50" relative="1" as="geometry">
            <mxPoint x="1280" y="355" as="sourcePoint" />
            <mxPoint x="1330" y="305" as="targetPoint" />
          </mxGeometry>
        </mxCell>
      </root>
    </mxGraphModel>
  </diagram>
</mxfile>
